<svg xmlns="http://www.w3.org/2000/svg" viewBox="0 0 120 120" role="img" aria-labelledby="title">
  <title id="title">Hussu Drug Store</title>
  <defs>
    <linearGradient id="grad" x1="0%" y1="0%" x2="100%" y2="100%">
      <stop offset="0%" stop-color="#059669" />
      <stop offset="100%" stop-color="#047857" />
    </linearGradient>
  </defs>
  <rect width="120" height="120" rx="28" fill="url(#grad)" />
  <path d="M70 30c15 7 18 25 10 38-8 13-27 16-38 6 0 0 4-1 6-4 4-6 1-13-4-17-5-4-11-3-16 2-3 3-6 5-9 5 0 0 5-12 22-22 21-18-2-28-18-20C15 44 29 28 45 24c13-3 26 0 35 6Z" fill="#fff" opacity="0.95" />
  <path d="M85 23l4.3 8.8 9.5 1.4-6.9 6.8 1.6 9.7-8.7-4.5-8.7 4.5 1.6-9.7-6.9-6.8 9.5-1.4L85 23Z" fill="#fef3c7" />
</svg>
